<svg xmlns:xlink="http://www.w3.org/1999/xlink" xmlns="http://www.w3.org/2000/svg" width="26" height="24" fill="#4e008e" color="#4e008e" viewBox="0 0 26 24" version="1.1" style="fill-rule: evenodd; clip-rule: evenodd; stroke-linejoin: round; stroke-miterlimit: 2;"><path d="M23.086,23.998l-10.18,0c-0.451,0 -0.818,-0.38 -0.818,-0.85l0,-4.123c0,-0.469 0.367,-0.849 0.818,-0.849l10.18,0c0.451,0 0.818,0.38 0.818,0.849l0,4.123c0,0.468 -0.364,0.847 -0.818,0.85Zm-0.985,-6.526l-5.062,0l0,-4.843c-0.111,-0.021 -0.226,-0.049 -0.339,-0.085c-0.119,-0.037 -0.235,-0.084 -0.339,-0.14c-0.347,-0.19 -0.566,-0.498 -0.335,-0.999c0.17,-0.369 0.258,-0.682 0.297,-0.943c0.02,-0.131 0.028,-0.248 0.028,-0.352c-0.001,-0.144 -0.017,-0.261 -0.037,-0.352l-6.204,0c-0.301,0 -0.545,-0.254 -0.545,-0.566l0,-8.628c0,-0.313 0.244,-0.566 0.545,-0.566l12.41,0c1.922,0 3.48,1.619 3.48,3.614l0,2.531c0,1.995 -1.556,3.613 -3.48,3.615l-0.419,0l0,7.714Zm-21.41,-13.313l4.844,0c0.291,-1.774 1.642,-3.174 3.352,-3.47l0,8.378c-1.71,-0.297 -3.061,-1.696 -3.352,-3.47l-4.844,0c-0.381,0 -0.691,-0.322 -0.691,-0.719c0,-0.397 0.31,-0.719 0.691,-0.719Zm16.964,-1.2c-0.264,-0.274 -0.694,-0.274 -0.958,0c-0.265,0.276 -0.265,0.722 0,0.997l2.017,2.096c0.132,0.136 0.306,0.206 0.479,0.206c0.174,0 0.347,-0.07 0.48,-0.206c0.264,-0.275 0.264,-0.721 0,-0.997l-2.018,-2.096Zm5.305,2.096l-2.017,-2.096c-0.265,-0.274 -0.694,-0.274 -0.959,0c-0.265,0.276 -0.265,0.722 0,0.997l2.017,2.096c0.132,0.136 0.306,0.206 0.479,0.206c0.174,0 0.347,-0.07 0.48,-0.206c0.265,-0.275 0.265,-0.721 0,-0.997Z" style="" fill="#555555"></path></svg>