<svg xmlns:xlink="http://www.w3.org/1999/xlink" xmlns="http://www.w3.org/2000/svg" width="25" height="25" viewBox="0 0 25 25" version="1.1" style="fill-rule: evenodd; clip-rule: evenodd; stroke-linejoin: round; stroke-miterlimit: 2;"><path d="M12.5,21.667c-0.307,0 -0.556,0.249 -0.556,0.555l0,2.222c0,0.307 0.249,0.556 0.556,0.556c0.307,0 0.556,-0.249 0.556,-0.556l0,-2.222c0,-0.306 -0.249,-0.555 -0.556,-0.555Zm5.342,-1.025c-0.153,-0.266 -0.493,-0.357 -0.759,-0.203c-0.265,0.153 -0.356,0.493 -0.203,0.758l1.111,1.925c0.154,0.266 0.493,0.357 0.759,0.203c0.266,-0.153 0.357,-0.493 0.203,-0.758l-1.111,-1.925Zm-9.925,-0.203c-0.266,-0.154 -0.606,-0.063 -0.759,0.203l-1.111,1.924c-0.154,0.266 -0.063,0.606 0.203,0.759c0.266,0.154 0.606,0.062 0.759,-0.203l1.111,-1.925c0.153,-0.265 0.063,-0.605 -0.203,-0.758Zm4.57,-14.886c3.914,0 7.091,3.107 7.091,6.934c0,3.827 -3.177,6.934 -7.091,6.934c-3.914,0 -7.091,-3.107 -7.091,-6.934c0,-3.827 3.177,-6.934 7.091,-6.934Zm-8.684,11.327l-1.925,1.111c-0.266,0.154 -0.357,0.493 -0.203,0.759c0.153,0.266 0.493,0.357 0.759,0.203l1.924,-1.111c0.266,-0.153 0.357,-0.493 0.203,-0.759c-0.153,-0.266 -0.493,-0.356 -0.758,-0.203Zm19.319,1.111l-1.925,-1.111c-0.265,-0.153 -0.605,-0.063 -0.759,0.203c-0.153,0.266 -0.062,0.606 0.204,0.759l1.924,1.111c0.266,0.154 0.606,0.063 0.759,-0.203c0.154,-0.266 0.063,-0.606 -0.203,-0.759Zm1.322,-6.047c0.307,0 0.556,0.249 0.556,0.556c0,0.307 -0.249,0.556 -0.556,0.556l-2.222,0c-0.306,0 -0.555,-0.249 -0.555,-0.556c0,-0.307 0.249,-0.556 0.555,-0.556l2.222,0Zm-21.666,0c0.306,0 0.555,0.249 0.555,0.556c0,0.307 -0.249,0.556 -0.555,0.556l-2.222,0c-0.307,0 -0.556,-0.249 -0.556,-0.556c0,-0.307 0.249,-0.556 0.556,-0.556l2.222,0Zm18.42,-3.824l1.924,-1.111c0.266,-0.154 0.357,-0.493 0.203,-0.759c-0.153,-0.266 -0.493,-0.357 -0.758,-0.203l-1.925,1.111c-0.266,0.153 -0.357,0.493 -0.203,0.759c0.153,0.265 0.493,0.356 0.759,0.203Zm-16.84,-0.962l-1.924,-1.111c-0.266,-0.154 -0.606,-0.063 -0.759,0.203c-0.154,0.266 -0.063,0.606 0.203,0.759l1.925,1.111c0.265,0.153 0.605,0.062 0.758,-0.203c0.154,-0.266 0.063,-0.606 -0.203,-0.759Zm2.651,-5.28c-0.153,-0.266 -0.493,-0.357 -0.759,-0.203c-0.266,0.153 -0.357,0.493 -0.203,0.759l1.111,1.924c0.153,0.266 0.493,0.357 0.759,0.203c0.266,-0.153 0.356,-0.493 0.203,-0.758l-1.111,-1.925Zm11.741,-0.203c-0.266,-0.154 -0.606,-0.063 -0.759,0.203l-1.111,1.924c-0.153,0.266 -0.062,0.606 0.203,0.759c0.266,0.154 0.606,0.063 0.759,-0.203l1.111,-1.925c0.154,-0.265 0.063,-0.605 -0.203,-0.758Zm-6.25,-1.675c-0.307,0 -0.556,0.249 -0.556,0.556l0,2.222c0,0.306 0.249,0.555 0.556,0.555c0.307,0 0.556,-0.249 0.556,-0.555l0,-2.222c0,-0.307 -0.249,-0.556 -0.556,-0.556Z" fill="#4E008E"></path></svg>