<svg xmlns:xlink="http://www.w3.org/1999/xlink" xmlns="http://www.w3.org/2000/svg" width="32" height="18" viewBox="0 0 32 18" version="1.1" style="fill-rule: evenodd; clip-rule: evenodd; stroke-linejoin: round; stroke-miterlimit: 2;"><path d="M0,16.678l8.365,0c-0.355,-0.897 -0.549,-1.872 -0.549,-2.891c0,-4.422 3.66,-8.012 8.169,-8.012c4.509,0 8.169,3.59 8.169,8.012c0,1.019 -0.194,1.994 -0.549,2.891l8.395,0l0,1.322l-32,0l0,-1.322Zm29.227,-2.127l-2.56,0c-0.354,0 -0.64,-0.287 -0.64,-0.642c0,-0.354 0.286,-0.642 0.64,-0.642l2.56,0c0.353,0 0.64,0.288 0.64,0.642c0,0.355 -0.287,0.642 -0.64,0.642Zm-23.894,0l-2.56,0c-0.353,0 -0.64,-0.287 -0.64,-0.642c0,-0.354 0.287,-0.642 0.64,-0.642l2.56,0c0.354,0 0.64,0.288 0.64,0.642c0,0.355 -0.286,0.642 -0.64,0.642Zm1.607,-6.494l-2.216,-1.284c-0.307,-0.177 -0.698,-0.072 -0.875,0.235c-0.176,0.307 -0.072,0.7 0.235,0.877l2.216,1.284c0.307,0.177 0.698,0.072 0.875,-0.235c0.177,-0.307 0.072,-0.7 -0.235,-0.877Zm18.333,1.005l2.217,-1.284c0.306,-0.177 0.411,-0.57 0.234,-0.877c-0.177,-0.307 -0.568,-0.412 -0.874,-0.235l-2.217,1.284c-0.306,0.178 -0.411,0.57 -0.234,0.877c0.176,0.307 0.568,0.412 0.874,0.235Zm-15.172,-6.892c-0.177,-0.307 -0.568,-0.412 -0.874,-0.234c-0.307,0.177 -0.411,0.569 -0.235,0.876l1.28,2.224c0.177,0.307 0.568,0.412 0.875,0.235c0.306,-0.177 0.411,-0.57 0.234,-0.877l-1.28,-2.224Zm12.779,-0.235c-0.306,-0.177 -0.698,-0.072 -0.874,0.235l-1.28,2.224c-0.177,0.307 -0.072,0.7 0.234,0.877c0.306,0.177 0.698,0.072 0.874,-0.235l1.28,-2.224c0.177,-0.307 0.072,-0.7 -0.234,-0.877Zm-6.88,-1.935c-0.353,0 -0.64,0.288 -0.64,0.642l0,2.568c0,0.354 0.287,0.642 0.64,0.642c0.353,0 0.64,-0.288 0.64,-0.642l0,-2.568c0,-0.354 -0.287,-0.642 -0.64,-0.642Z" fill="#4E008E"></path></svg>