<svg xmlns="http://www.w3.org/2000/svg" xmlns:xlink="http://www.w3.org/1999/xlink" xmlns:serif="http://www.serif.com/" width="23" height="23" viewBox="0 0 23 23" version="1.1" xml:space="preserve" style="fill-rule:evenodd;clip-rule:evenodd;stroke-linejoin:round;stroke-miterlimit:2;"><path id="icon" d="M21.458,5.727c-1.028,-1.762 -2.423,-3.157 -4.185,-4.186c-1.762,-1.028 -3.686,-1.542 -5.773,-1.542c-2.086,0 -4.01,0.514 -5.772,1.542c-1.762,1.029 -3.157,2.424 -4.186,4.186c-1.028,1.761 -1.542,3.686 -1.542,5.772c0,2.087 0.514,4.01 1.542,5.773c1.029,1.761 2.424,3.156 4.186,4.185c1.762,1.028 3.686,1.542 5.772,1.542c2.086,0 4.011,-0.514 5.773,-1.542c1.762,-1.028 3.156,-2.424 4.185,-4.185c1.028,-1.762 1.542,-3.686 1.542,-5.773c0,-2.086 -0.514,-4.011 -1.542,-5.772Zm-2.905,9.86c-0.729,1.248 -1.717,2.236 -2.965,2.965c-1.248,0.729 -2.61,1.093 -4.088,1.093c-1.477,0 -2.84,-0.364 -4.088,-1.093c-1.248,-0.729 -2.236,-1.717 -2.964,-2.965c-0.729,-1.248 -1.094,-2.61 -1.094,-4.088c0,-1.477 0.365,-2.84 1.094,-4.088c0.728,-1.247 1.717,-2.236 2.964,-2.965c1.248,-0.728 2.611,-1.093 4.088,-1.093c1.478,0 2.84,0.365 4.088,1.093c1.248,0.729 2.236,1.718 2.965,2.965c0.729,1.248 1.093,2.611 1.093,4.088c0,1.478 -0.364,2.84 -1.093,4.088Zm-5.615,-9.838c0.142,0.001 0.255,0.046 0.344,0.135c0.09,0.09 0.135,0.204 0.135,0.344l0,6.709c0,0.139 -0.045,0.254 -0.135,0.344c-0.09,0.09 -0.204,0.134 -0.344,0.134l-4.792,0c-0.14,0 -0.254,-0.044 -0.344,-0.134c-0.09,-0.09 -0.135,-0.205 -0.135,-0.344l0,-0.959c0,-0.14 0.045,-0.255 0.135,-0.344c0.089,-0.089 0.202,-0.134 0.344,-0.135l3.354,0l0,-5.271c0,-0.14 0.045,-0.254 0.135,-0.344c0.089,-0.089 0.202,-0.134 0.344,-0.135l0.959,0Z" style="fill:#555;"/></svg>