<svg xmlns="http://www.w3.org/2000/svg" xmlns:xlink="http://www.w3.org/1999/xlink" xmlns:serif="http://www.serif.com/" width="23" height="23" viewBox="0 0 23 23" version="1.1" xml:space="preserve" style="fill-rule:evenodd;clip-rule:evenodd;stroke-linejoin:round;stroke-miterlimit:2;"><path id="icon-calendar" serif:id="icon calendar" d="M14.811,2.55l0,2.792c0,1.258 1.057,2.271 2.343,2.271l1.47,0c1.287,-0.001 2.329,-1.014 2.329,-2.271l0,-2.782c1.124,0.033 2.047,0.943 2.047,2.06l0,16.305c0,1.137 -0.946,2.074 -2.108,2.074l-18.784,0c-1.164,0 -2.108,-0.935 -2.108,-2.074l0,-16.305c0,-1.117 0.923,-2.027 2.047,-2.06l0,2.782c0,1.258 1.043,2.271 2.329,2.271l1.47,0c1.287,-0.001 2.343,-1.014 2.343,-2.271l0,-2.792l6.622,0Zm4.548,18.251c0.505,-0.001 0.911,-0.4 0.911,-0.891l0,-8.422c0,-0.493 -0.408,-0.891 -0.911,-0.891l-15.758,0c-0.504,0 -0.912,0.398 -0.912,0.891l0,8.422c0,0.492 0.408,0.891 0.912,0.891l15.758,0Zm-6.927,-4.081c0.295,0.001 0.533,0.234 0.533,0.521l0,1.821c0,0.288 -0.238,0.521 -0.533,0.522l-1.864,0c-0.294,0 -0.533,-0.233 -0.533,-0.522l0,-1.821c0,-0.287 0.238,-0.52 0.533,-0.521l1.864,0Zm-4.657,0c0.296,0.001 0.534,0.234 0.534,0.521l0,1.821c0,0.288 -0.238,0.521 -0.534,0.522l-1.863,0c-0.294,0 -0.533,-0.233 -0.533,-0.522l0,-1.821c0,-0.287 0.237,-0.52 0.533,-0.521l1.863,0Zm9.313,0c0.296,0.001 0.533,0.234 0.533,0.521l0,1.821c0,0.288 -0.237,0.521 -0.533,0.522l-1.863,0c-0.295,0 -0.534,-0.233 -0.534,-0.522l0,-1.821c0,-0.287 0.238,-0.52 0.534,-0.521l1.863,0Zm-9.313,-4.553c0.296,0.001 0.534,0.234 0.534,0.521l0,1.822c0,0.288 -0.238,0.52 -0.534,0.522l-1.863,0c-0.294,0 -0.533,-0.234 -0.533,-0.522l0,-1.822c0,-0.287 0.237,-0.52 0.533,-0.521l1.863,0Zm4.657,0c0.295,0.001 0.533,0.234 0.533,0.521l0,1.822c0,0.288 -0.238,0.52 -0.533,0.522l-1.864,0c-0.294,0 -0.533,-0.234 -0.533,-0.522l0,-1.822c0,-0.287 0.238,-0.52 0.533,-0.521l1.864,0Zm4.656,0c0.296,0.001 0.533,0.234 0.533,0.521l0,1.822c0,0.288 -0.237,0.52 -0.533,0.522l-1.863,0c-0.295,0 -0.534,-0.234 -0.534,-0.522l0,-1.822c0,-0.287 0.238,-0.52 0.534,-0.521l1.863,0Zm1.501,-12.168c0.442,0.001 0.799,0.35 0.798,0.781l0,4.561c0,0.431 -0.356,0.78 -0.798,0.781l-1.453,0c-0.441,0 -0.799,-0.349 -0.799,-0.781l0,-4.561c0,-0.431 0.356,-0.78 0.799,-0.781l1.453,0Zm-12.765,0c0.443,0.001 0.799,0.35 0.799,0.781l0,4.561c0,0.431 -0.356,0.78 -0.799,0.781l-1.453,0c-0.441,0 -0.799,-0.349 -0.799,-0.781l0,-4.561c0,-0.431 0.357,-0.78 0.799,-0.781l1.453,0Z" style="fill:#656565;"/></svg>