<svg width="28" fill="#4E008E" xmlns="http://www.w3.org/2000/svg" viewBox="0 0 44.65 41.4"><g data-name="Camada 2"><g data-name="Camada 1"><path d="M17.87,3.49a1.94,1.94,0,0,1,2.41,0l10.47,8.18v6.5a1.54,1.54,0,1,0,3.07,0V14.06l1.86,1.45a1.56,1.56,0,0,0,2.15-.26,1.52,1.52,0,0,0,.32-1.14,1.5,1.5,0,0,0-.59-1l-15.39-12a5.06,5.06,0,0,0-6.19,0L.59,13.1a1.54,1.54,0,0,0-.27,2.16,1.58,1.58,0,0,0,2.15.25l1.86-1.45v16.4A4.71,4.71,0,0,0,9,35.16h8.44a1.54,1.54,0,1,0,0-3.07H9A1.63,1.63,0,0,1,7.4,30.46V11.67Z"></path><path d="M41.13,31.22a2.69,2.69,0,0,0-1.92-.79l-1.17,0L36.55,29l1.5-1.5,1,.06a2.7,2.7,0,0,0,2.1-.78l2.71-2.71a2.72,2.72,0,0,0,.46-3.22,9.78,9.78,0,0,0-3.93-3.93,2.76,2.76,0,0,0-3.2.47l-2.71,2.71a2.68,2.68,0,0,0-.79,2.07l0,1-1.48,1.49-1.5-1.49.06-1a2.71,2.71,0,0,0-.79-2.1L27.3,17.35a2.73,2.73,0,0,0-1.92-.79h0a2.7,2.7,0,0,0-1.3.33,9.82,9.82,0,0,0-3.92,3.93A2.72,2.72,0,0,0,20.63,24l2.71,2.71a2.69,2.69,0,0,0,1.92.79l1.17,0L27.92,29l-1.49,1.49-1-.06a2.73,2.73,0,0,0-2.1.79l-2.71,2.71a2.71,2.71,0,0,0-.46,3.22,9.84,9.84,0,0,0,3.93,3.93,2.78,2.78,0,0,0,3.2-.47L30,37.87a2.66,2.66,0,0,0,.79-2.06l0-1,1.49-1.49,1.49,1.5-.06,1a2.73,2.73,0,0,0,.79,2.1l2.71,2.71a2.69,2.69,0,0,0,3.22.46,9.82,9.82,0,0,0,3.92-3.93,2.7,2.7,0,0,0-.47-3.2ZM36,33.51l-3.72-3.72-3.76,3.75a1,1,0,0,0-.24.69l.07,1.71a.24.24,0,0,1-.07.18l-2.71,2.71a.23.23,0,0,1-.26.05,7.35,7.35,0,0,1-2.95-3,.23.23,0,0,1,.05-.27l2.7-2.7a.2.2,0,0,1,.19-.07L27,33a1,1,0,0,0,.7-.29L31.43,29l-3.76-3.75A1,1,0,0,0,27,25l-1.72.06a.22.22,0,0,1-.17-.07l-2.71-2.71a.23.23,0,0,1-.05-.26,7.37,7.37,0,0,1,3-3,.23.23,0,0,1,.26.05l2.71,2.71a.2.2,0,0,1,.06.19l-.09,1.67a1,1,0,0,0,.29.77l3.72,3.72L36,24.41a1,1,0,0,0,.24-.69L36.16,22a.26.26,0,0,1,.07-.19l2.71-2.71a.21.21,0,0,1,.26,0,7.35,7.35,0,0,1,2.95,3,.2.2,0,0,1,0,.26L39.4,25a.4.4,0,0,1-.19.07L37.46,25a.94.94,0,0,0-.69.29L33.05,29l3.75,3.75a1,1,0,0,0,.69.24l1.72-.06a.24.24,0,0,1,.17.06l2.71,2.71a.25.25,0,0,1,0,.27,7.35,7.35,0,0,1-3,2.94.22.22,0,0,1-.26,0l-2.71-2.71a.26.26,0,0,1-.06-.19l.09-1.67A1,1,0,0,0,36,33.51Z"></path></g></g></svg>