<svg width="25" fill="#4E008E" xmlns="http://www.w3.org/2000/svg" viewBox="0 0 38.17 35.15"><g id="Camada_2" data-name="Camada 2"><g id="Camada_1-2" data-name="Camada 1"><path d="M38.15,14.12a1.48,1.48,0,0,0-.58-1l-4.3-3.36-.05-.09h0l-11-8.59a5,5,0,0,0-6.18,0L5,9.66H4.94l-.05.08L.59,13.1a1.52,1.52,0,0,0-.58,1,1.48,1.48,0,0,0,.32,1.13,1.58,1.58,0,0,0,2.15.27l1.86-1.46V30.45A4.71,4.71,0,0,0,9,35.15H29.12a4.7,4.7,0,0,0,4.7-4.7V14.06l1.87,1.46a1.58,1.58,0,0,0,2.15-.27A1.53,1.53,0,0,0,38.15,14.12ZM30.76,30.45a1.64,1.64,0,0,1-1.64,1.63H9a1.63,1.63,0,0,1-1.63-1.63V11.67L17.88,3.48a2,2,0,0,1,2.4,0l10.48,8.19Z"></path></g></g></svg>