<svg width="36" fill="#4E008E" xmlns="http://www.w3.org/2000/svg" viewBox="0 0 45.41 27.75"><g id="Camada_2" data-name="Camada 2"><g id="Camada_1-2" data-name="Camada 1"><path d="M44.45,10.91,35.56.92A3.35,3.35,0,0,0,33.26,0H3.33A3.34,3.34,0,0,0,0,3.32V19.66A3.35,3.35,0,0,0,3.33,23H6.17a5.58,5.58,0,0,0,11,0H28.74a5.57,5.57,0,0,0,5.5,4.76,3.7,3.7,0,0,0,.47,0,5.53,5.53,0,0,0,5-4.74h2.33a3.33,3.33,0,0,0,3.32-3.33V13.25A3.26,3.26,0,0,0,44.45,10.91Zm-13,11.27a2.28,2.28,0,0,1,0-.37,2.83,2.83,0,0,1,2.81-2.48,2.31,2.31,0,0,1,.37,0A2.82,2.82,0,0,1,37,21.79a2.94,2.94,0,0,1,0,.42,2.82,2.82,0,1,1-5.63,0ZM37,17.38a5.23,5.23,0,0,0-.49-.23L36.15,17a3.64,3.64,0,0,0-.47-.14l-.46-.12a7.44,7.44,0,0,0-1-.09,6.8,6.8,0,0,0-1,.1l-.4.1a4,4,0,0,0-.49.15l-.33.14a4.22,4.22,0,0,0-.53.25l-.31.2a4.29,4.29,0,0,0-.45.33l-.29.25c-.13.12-.25.25-.37.38l-.27.31-.29.43-.07.12a1.88,1.88,0,0,0-.14.24,3.79,3.79,0,0,0-.18.39l-.09.21H16.92l0,0a3.76,3.76,0,0,0-.27-.62,2.36,2.36,0,0,0-.18-.29,5,5,0,0,0-.34-.51l-.23-.27c-.12-.14-.25-.27-.39-.41l-.29-.25-.45-.33-.32-.19a2.66,2.66,0,0,0-.49-.23,1.81,1.81,0,0,0-.35-.16c-.16-.06-.32-.1-.49-.15l-.43-.11a6,6,0,0,0-.95-.08,5.58,5.58,0,0,0-1,.09l-.19.06a1.7,1.7,0,0,0-.57.13L9.85,17l-.34.14-.5.25a1.8,1.8,0,0,0-.34.21,5.14,5.14,0,0,0-.44.31l-.65.63a2.22,2.22,0,0,0-.28.33,2.26,2.26,0,0,0-.19.28l-.32.5c-.06.12-.11.24-.16.37l-.06.15a.81.81,0,0,1-.06.13H3.32a.72.72,0,0,1-.4-.16.63.63,0,0,1-.18-.43V3.32a.58.58,0,0,1,.59-.58H27.77V8.28A2.74,2.74,0,0,0,30.51,11H40.88l1.63,1.82a.6.6,0,0,1,.18.42v6.42a.58.58,0,0,1-.17.41.57.57,0,0,1-.42.17H39.47a5,5,0,0,0-.29-.63L39,19.33a4.81,4.81,0,0,0-.34-.49l-.23-.28a4.89,4.89,0,0,0-.39-.4,3.07,3.07,0,0,0-.29-.24,4.22,4.22,0,0,0-.46-.34ZM8.84,22.2a2.53,2.53,0,0,1,0-.39,2.84,2.84,0,0,1,2.81-2.45,3.43,3.43,0,0,1,.56.05A2.86,2.86,0,0,1,14.5,21.8a2.79,2.79,0,0,1,0,.41,2.83,2.83,0,1,1-5.66,0ZM30.52,8.28V2.74h2.73a.63.63,0,0,1,.36.11l4.83,5.42Z"></path></g></g></svg>