<svg xmlns="http://www.w3.org/2000/svg" width="199.529" height="35" viewBox="0 0 199.529 35"><defs><style>.a{fill:#fff;}</style></defs><g transform="translate(-648 -2611)"><path class="a" d="M553.214,63.826a12.317,12.317,0,0,0-6.713-1.513q-1.242,0-2.887.111-1.337.09-2.556.293a.337.337,0,0,0-.281.334V81.43a.338.338,0,0,0,.338.338h3.707a.306.306,0,0,0,.306-.306V75.329h1.287a12.352,12.352,0,0,0,6.771-1.54,5.484,5.484,0,0,0,2.425-5.009A5.41,5.41,0,0,0,553.214,63.826Zm-3.226,7.2a8.185,8.185,0,0,1-3.573.611h-1.287v-5.56c.2-.015.434-.03.7-.046Q546.3,66,546.79,66a11.785,11.785,0,0,1,1.79.125,4.32,4.32,0,0,1,1.422.444,2.262,2.262,0,0,1,.866.846,2.642,2.642,0,0,1,.3,1.332A2.323,2.323,0,0,1,549.988,71.027Z" transform="translate(175.978 2555.468)"/><g transform="translate(0 28)"><path class="a" d="M795.307,104.654a8.616,8.616,0,0,1,.621-3.4,7.263,7.263,0,0,1,1.631-2.428,6.812,6.812,0,0,1,2.324-1.471,7.536,7.536,0,0,1,2.7-.5,6.858,6.858,0,0,1,5.111,1.9,7.642,7.642,0,0,1,1.877,5.592q0,.361-.029.791-.016.241-.032.452a.338.338,0,0,1-.337.312h-9.448a2.729,2.729,0,0,0,1.241,2.026,5.143,5.143,0,0,0,2.945.749,12.932,12.932,0,0,0,2.325-.208q.591-.108,1.069-.242a.338.338,0,0,1,.413.218l.859,2.573a.337.337,0,0,1-.2.422q-.27.1-.628.207a12.547,12.547,0,0,1-1.285.291q-.708.125-1.516.208a15.788,15.788,0,0,1-1.617.083,9.918,9.918,0,0,1-3.566-.583,6.969,6.969,0,0,1-2.512-1.6,6.283,6.283,0,0,1-1.473-2.4A9.173,9.173,0,0,1,795.307,104.654Zm10.106-1.582a4.141,4.141,0,0,0-.187-1.027,2.545,2.545,0,0,0-.491-.888,2.6,2.6,0,0,0-.838-.638,2.821,2.821,0,0,0-1.256-.25,2.99,2.99,0,0,0-1.242.236,2.561,2.561,0,0,0-.866.624,2.769,2.769,0,0,0-.534.9,5.712,5.712,0,0,0-.274,1.041Z" transform="translate(-45.558 2497.404)"/><path class="a" d="M677.179,100.989a5.61,5.61,0,0,1,2.631-.519c1.348.088,2.631.443,2.631,3.309v7.715a.338.338,0,0,0,.338.338H686.2a.338.338,0,0,0,.338-.338v-7.873a11.009,11.009,0,0,0-.309-2.709,5.3,5.3,0,0,0-1.041-2.1,4.719,4.719,0,0,0-1.984-1.368,10.669,10.669,0,0,0-3.473-.588,18.453,18.453,0,0,0-6.427,1.186.335.335,0,0,0-.214.315v13.138a.338.338,0,0,0,.338.338h3.417a.338.338,0,0,0,.338-.338Z" transform="translate(60.819 2497.404)"/><path class="a" d="M934.823,110.677a5.609,5.609,0,0,1-2.631.519c-1.348-.088-2.631-.443-2.631-3.309v-7.833a.338.338,0,0,0-.338-.338h-3.417a.338.338,0,0,0-.338.338v7.99a11,11,0,0,0,.309,2.709,5.3,5.3,0,0,0,1.041,2.1,4.718,4.718,0,0,0,1.984,1.368,10.664,10.664,0,0,0,3.473.588,18.454,18.454,0,0,0,6.427-1.186.335.335,0,0,0,.214-.315V100.054a.338.338,0,0,0-.338-.338h-3.417a.338.338,0,0,0-.338.338Z" transform="translate(-158.846 2494.914)"/><path class="a" d="M50.118,10H44.775a3.121,3.121,0,0,0-2.93,2.046l-1.614,4.4,0,0-.848,2.311H24.837a14.7,14.7,0,0,0-14.4,13.118A11.835,11.835,0,0,0,22.415,45h5.2a3.063,3.063,0,0,0,2.875-2.007l1.667-4.541a3.359,3.359,0,0,1,3.153-2.2H47.7a14.7,14.7,0,0,0,14.4-13.118A11.835,11.835,0,0,0,50.118,10ZM48.858,27.5H38.353a3.121,3.121,0,0,0-2.93,2.046L33.81,33.939h0l-.066.18-.782,2.13h-9.4a4.375,4.375,0,0,1-4.374-4.465A4.431,4.431,0,0,1,23.65,27.5H36.173l2.4-6.549h0a3.355,3.355,0,0,1,3.15-2.2H48.86A4.356,4.356,0,0,1,53.3,22.51,4.45,4.45,0,0,1,48.858,27.5Z" transform="translate(637.613 2573)"/><g transform="translate(783.421 2589.568)"><path class="a" d="M1065.787,71.875a7.777,7.777,0,0,0-1.769-1.114q-1.017-.473-2.159-.947-.947-.39-1.755-.752a7.424,7.424,0,0,1-1.407-.808,3.253,3.253,0,0,1-.933-1.059,3.1,3.1,0,0,1-.334-1.5,3.151,3.151,0,0,1,.32-1.477,2.9,2.9,0,0,1,.878-1.017,3.667,3.667,0,0,1,1.323-.585,7.343,7.343,0,0,1,1.685-.181,8.937,8.937,0,0,1,2.493.334,7.155,7.155,0,0,1,1.633.681.342.342,0,0,0,.488-.162l.4-.947a.341.341,0,0,0-.142-.428,5.556,5.556,0,0,0-.65-.313,10.763,10.763,0,0,0-1.2-.4,11.871,11.871,0,0,0-1.407-.293,10.483,10.483,0,0,0-1.532-.111,7.266,7.266,0,0,0-4.569,1.282,4.478,4.478,0,0,0-1.644,3.761,4.75,4.75,0,0,0,.348,1.894,4.266,4.266,0,0,0,1.017,1.435,7.352,7.352,0,0,0,1.616,1.125,21.285,21.285,0,0,0,2.145.969q.947.388,1.811.734a7,7,0,0,1,1.532.835,3.788,3.788,0,0,1,1.073,1.2,3.553,3.553,0,0,1,.4,1.773,2.954,2.954,0,0,1-1.254,2.666,6.359,6.359,0,0,1-3.51.823,10.475,10.475,0,0,1-1.783-.139,10.32,10.32,0,0,1-1.449-.348,9.575,9.575,0,0,1-1.114-.432q-.23-.108-.414-.2a.342.342,0,0,0-.477.185l-.371,1a.342.342,0,0,0,.164.424q.218.112.513.243a9.576,9.576,0,0,0,1.226.432,12.97,12.97,0,0,0,1.644.348,13.617,13.617,0,0,0,2.034.139,8.326,8.326,0,0,0,4.945-1.309,4.519,4.519,0,0,0,1.825-3.928,5.147,5.147,0,0,0-.446-2.256A4.746,4.746,0,0,0,1065.787,71.875Z" transform="translate(-1055.06 -60.772)"/><path class="a" d="M1260.11,95.115a6.718,6.718,0,0,0-2.274-1.624,7.589,7.589,0,0,0-5.8,0,6.715,6.715,0,0,0-2.274,1.624,7.414,7.414,0,0,0-1.5,2.525,10.326,10.326,0,0,0,0,6.556,7.246,7.246,0,0,0,1.5,2.51,6.8,6.8,0,0,0,2.274,1.609,7.589,7.589,0,0,0,5.8,0,6.8,6.8,0,0,0,2.274-1.609,7.257,7.257,0,0,0,1.5-2.51,10.326,10.326,0,0,0,0-6.556A7.425,7.425,0,0,0,1260.11,95.115Zm-1.45,10.351a4.96,4.96,0,0,1-7.447,0,8.241,8.241,0,0,1,0-9.11,4.932,4.932,0,0,1,7.447,0,8.24,8.24,0,0,1,0,9.11Z" transform="translate(-1222.758 -88.735)"/><path class="a" d="M1458.407,94.746a6.1,6.1,0,0,0-4.651-1.831,6.973,6.973,0,0,0-2.564.487,6.175,6.175,0,0,0-2.211,1.492,7.66,7.66,0,0,0-1.566,2.5,9.355,9.355,0,0,0-.6,3.5,11.312,11.312,0,0,0,.43,3.2,6.45,6.45,0,0,0,1.382,2.525,6.372,6.372,0,0,0,2.426,1.654,9.581,9.581,0,0,0,3.562.59,10.572,10.572,0,0,0,2.779-.325,12.629,12.629,0,0,0,1.289-.413.36.36,0,0,0,.2-.45l-.3-.912a.361.361,0,0,0-.468-.226q-.357.131-.859.287a9.015,9.015,0,0,1-2.579.3,5.505,5.505,0,0,1-4.3-1.506,6.585,6.585,0,0,1-1.443-4.312h10.821a.363.363,0,0,0,.362-.334c0-.036.006-.072.008-.109q.015-.236.015-.472Q1460.142,96.577,1458.407,94.746ZM1449,99.678a6.378,6.378,0,0,1,.415-1.92,5.1,5.1,0,0,1,.982-1.609,4.861,4.861,0,0,1,1.474-1.108,4.31,4.31,0,0,1,1.919-.413,3.846,3.846,0,0,1,3.132,1.329,5.908,5.908,0,0,1,1.167,3.721Z" transform="translate(-1396.034 -88.735)"/><path class="a" d="M1389.449,93.063q-.223-.049-.5-.1a10.367,10.367,0,0,0-1.787-.147,12.676,12.676,0,0,0-3.16.339,15.813,15.813,0,0,0-1.809.569.362.362,0,0,0-.229.338v14a.337.337,0,0,0,.337.337h1.246a.337.337,0,0,0,.337-.337V95a5.5,5.5,0,0,1,.989-.3,9.024,9.024,0,0,1,1.994-.177,10.952,10.952,0,0,1,1.9.133l.071.013a.362.362,0,0,0,.389-.191l.462-.9A.362.362,0,0,0,1389.449,93.063Z" transform="translate(-1339.586 -88.65)"/><path class="a" d="M1181.871,79.732l-.308-.879a.362.362,0,0,0-.48-.215q-.161.066-.341.135a5.6,5.6,0,0,1-1.949.28,5.339,5.339,0,0,1-1.3-.148,2.009,2.009,0,0,1-1-.59,2.941,2.941,0,0,1-.635-1.255,8.243,8.243,0,0,1-.221-2.111V66.9h5.106a.363.363,0,0,0,.32-.191l.525-.974a.364.364,0,0,0-.32-.536h-5.631V61.031a.363.363,0,0,0-.429-.357l-1.194.22a.363.363,0,0,0-.3.357v13.52a13.039,13.039,0,0,0,.236,2.658,4.6,4.6,0,0,0,.812,1.875,3.437,3.437,0,0,0,1.536,1.122,6.667,6.667,0,0,0,2.377.369,7.163,7.163,0,0,0,2.244-.339q.426-.14.746-.267A.362.362,0,0,0,1181.871,79.732Z" transform="translate(-1158.331 -60.669)"/></g></g></g></svg>